<?xml version="1.0" standalone="no"?>
<!DOCTYPE svg PUBLIC "-//W3C//DTD SVG 20010904//EN"
 "http://www.w3.org/TR/2001/REC-SVG-20010904/DTD/svg10.dtd">
<svg version="1.0" xmlns="http://www.w3.org/2000/svg"
 width="48.000000pt" height="48.000000pt" viewBox="0 0 48.000000 48.000000"
 preserveAspectRatio="xMidYMid meet">
<metadata>
Created by potrace 1.16, written by Peter Selinger 2001-2019
</metadata>
<g transform="translate(0.000000,48.000000) scale(0.100000,-0.100000)"
fill="#000000" stroke="none">
<path d="M137 460 c3 -14 14 -43 24 -65 11 -22 16 -29 13 -15 -3 14 -15 43
-25 65 -10 22 -16 29 -12 15z"/>
<path d="M310 476 c0 -2 8 -10 18 -17 15 -13 16 -12 3 4 -13 16 -21 21 -21 13z"/>
<path d="M368 450 c29 -12 28 -20 -8 -50 -16 -14 -30 -29 -30 -35 0 -5 5 -3
10 5 9 13 12 12 25 -4 14 -19 15 -19 35 -1 11 10 22 26 25 36 4 11 13 19 21
19 8 0 14 5 14 10 0 13 -6 13 -30 0 -14 -7 -19 -5 -23 10 -4 14 -13 20 -34 19
-27 0 -27 -1 -5 -9z"/>
<path d="M180 345 c0 -5 5 -17 10 -25 5 -8 10 -10 10 -5 0 6 -5 17 -10 25 -5
8 -10 11 -10 5z"/>
<path d="M217 299 c6 -6 9 -17 7 -24 -3 -7 2 -15 10 -18 11 -4 16 -1 16 11 0
20 -18 42 -34 42 -6 0 -5 -5 1 -11z"/>
<path d="M316 264 c-6 -22 -11 -23 -69 -21 l-62 2 3 -36 c2 -20 -4 -53 -12
-74 -14 -32 -19 -36 -40 -31 -38 9 -39 -8 -4 -48 37 -42 71 -47 93 -12 15 23
12 56 -6 56 -12 0 -11 117 1 125 13 8 52 -14 45 -25 -3 -5 0 -19 7 -30 9 -15
21 -20 42 -18 26 3 30 -1 43 -37 22 -64 23 -68 28 -63 3 2 -2 26 -11 53 -16
45 -16 49 1 77 16 28 16 30 -3 51 -11 12 -18 27 -15 33 2 6 -5 14 -16 17 -14
3 -21 -1 -25 -19z m0 -63 c-8 -13 -36 -15 -36 -3 0 4 5 13 12 20 14 14 34 0
24 -17z m-128 -120 c10 -6 10 -10 -3 -21 -18 -15 -42 0 -31 19 8 13 16 14 34
2z"/>
<path d="M1 275 c0 -5 6 -21 14 -35 8 -14 14 -20 14 -15 0 6 -6 21 -14 35 -8
14 -14 21 -14 15z"/>
<path d="M40 182 c0 -7 11 -17 25 -22 15 -6 23 -15 19 -24 -5 -14 13 -33 23
-23 11 11 -9 46 -30 53 -12 4 -25 12 -29 18 -5 8 -8 7 -8 -2z"/>
<path d="M55 92 c-15 -11 -13 -92 3 -92 7 0 12 14 12 34 0 19 5 38 10 41 6 3
10 10 10 16 0 11 -21 12 -35 1z"/>
</g>
</svg>
